<?xml version="1.0" encoding="utf-8"?>
<!-- Generator: Adobe Illustrator 13.0.0, SVG Export Plug-In . SVG Version: 6.00 Build 14948)  -->
<!DOCTYPE svg PUBLIC "-//W3C//DTD SVG 1.1//EN" "http://www.w3.org/Graphics/SVG/1.1/DTD/svg11.dtd">
<svg version="1.1" id="Layer_1" xmlns="http://www.w3.org/2000/svg" xmlns:xlink="http://www.w3.org/1999/xlink" x="0px" y="0px"
	 width="217px" height="38px" viewBox="0 0 217 38" enable-background="new 0 0 217 38" xml:space="preserve">
<g>
	<path d="M18.747,34.122c-7.452,0-13.812-6.76-13.812-14.131c0-7.345,6.228-14.238,13.759-14.238c4.95,0,8.516,2.395,11.417,6.147
		h3.646c-1.091-1.969-2.262-3.779-4.045-5.189c-3.061-2.475-7.026-3.938-10.965-3.938C9.3,2.772,1.608,10.57,1.608,19.964
		c0,9.421,7.798,17.139,17.192,17.139c3.832,0,7.584-1.411,10.592-3.779c1.889-1.517,3.22-3.486,4.497-5.508h-3.646
		C27.37,31.567,23.697,34.122,18.747,34.122z"/>
	<path d="M56.537,16.158c-2.288-2.954-5.402-4.816-9.261-4.816c-6.919,0-12.615,5.615-12.615,12.535s5.722,12.587,12.615,12.587
		c4.019,0,6.813-1.676,9.261-4.764v4.205h3.008V11.927h-3.008V16.158z M47.116,33.696c-5.296,0-9.474-4.604-9.474-9.794
		c0-5.163,4.151-9.793,9.474-9.793c5.296,0,9.421,4.63,9.421,9.793C56.537,29.092,52.386,33.696,47.116,33.696z"/>
	<rect x="63.19" y="3.464" width="3.221" height="32.441"/>
	<polygon points="78.573,32.1 70.43,11.927 67.236,11.927 77.003,35.905 80.25,35.905 89.99,11.927 86.85,11.927 	"/>
	<rect x="91.32" y="11.927" width="3.221" height="23.979"/>
	<rect x="91.32" y="3.464" width="3.221" height="5.376"/>
	<path d="M108.406,11.342c-3.034,0-5.189,1.597-7.186,3.726v-3.141h-2.98v23.979h3.167v-14.61c-0.026-3.859,3.167-7.186,7.052-7.186
		c4.87,0,7.319,4.231,7.319,8.596v13.2h2.981v-13.2C118.759,16.478,115.112,11.342,108.406,11.342z"/>
	<polygon points="148.645,3.464 134.008,22.066 134.008,3.464 130.841,3.464 130.841,35.905 134.008,35.905 134.008,26.99 
		138.159,21.827 148.725,35.905 152.743,35.905 140.182,19.272 152.743,3.464 	"/>
	<rect x="153.914" y="3.464" width="3.141" height="32.441"/>
	<path d="M183.056,17.968c-2.183-4.072-6.547-6.626-11.151-6.626c-6.866,0-12.667,5.722-12.667,12.588
		c0,6.919,5.855,12.534,12.721,12.534c3.273,0,6.493-1.304,8.862-3.565c1.437-1.358,2.289-3.061,3.061-4.844h-3.38
		c-1.703,3.326-4.71,5.642-8.596,5.642c-2.368,0-4.684-0.958-6.44-2.581c-1.81-1.65-2.607-3.673-2.954-6.068h22.115
		C184.625,22.545,184.279,20.15,183.056,17.968z M162.616,22.279c0.958-4.497,4.498-8.17,9.342-8.17c4.071,0,8.436,2.501,9.394,8.17
		H162.616z"/>
	<rect x="186.968" y="11.927" width="3.167" height="23.979"/>
	<rect x="186.968" y="3.464" width="3.167" height="5.482"/>
	<path d="M204.053,11.342c-3.087,0-5.243,1.597-7.265,3.726v-3.141h-3.034v23.979h3.193v-14.61
		c-0.026-3.886,3.247-7.186,7.159-7.186c4.844,0,7.399,4.231,7.399,8.596v13.2h2.98v-13.2
		C214.485,16.478,210.786,11.342,204.053,11.342z"/>
</g>
</svg>
