<svg xmlns="http://www.w3.org/2000/svg" viewBox="0 0 330 330" enable-background="new 0 0 330 330"><g><path d="M202.5 122.5c-10.482 0-20.084 3.822-27.502 10.136C181.304 141.862 185 153.006 185 165s-3.696 23.138-10.002 32.364c7.418 6.314 17.02 10.136 27.502 10.136 23.435 0 42.5-19.065 42.5-42.5s-19.065-42.5-42.5-42.5z"/><path d="M315 42.857H15c-8.284 0-15 6.716-15 15v214.285c0 8.284 6.716 15 15 15h300c8.284 0 15-6.716 15-15V57.857c0-8.284-6.716-15-15-15zM202.5 222.5c-14.32 0-27.424-5.274-37.5-13.966-10.076 8.69-23.18 13.966-37.5 13.966-31.706 0-57.5-25.794-57.5-57.5s25.794-57.5 57.5-57.5c14.32 0 27.424 5.274 37.5 13.966 10.076-8.69 23.18-13.966 37.5-13.966 31.706 0 57.5 25.794 57.5 57.5s-25.794 57.5-57.5 57.5z"/></g></svg>