<?xml version="1.0" encoding="utf-8"?>
<!-- Generator: Adobe Illustrator 14.0.0, SVG Export Plug-In . SVG Version: 6.00 Build 43363)  -->
<!DOCTYPE svg PUBLIC "-//W3C//DTD SVG 1.1//EN" "http://www.w3.org/Graphics/SVG/1.1/DTD/svg11.dtd">
<svg version="1.1" id="Foreground" xmlns="http://www.w3.org/2000/svg" xmlns:xlink="http://www.w3.org/1999/xlink" x="0px" y="0px"
	 width="325px" height="200px" viewBox="0 0 325 200" enable-background="new 0 0 325 200" xml:space="preserve">
<path fill-rule="evenodd" clip-rule="evenodd" d="M314.878,162.686h0.94c0.481,0,1.002,0.093,1.002,0.699
	c0,0.723-0.574,0.755-1.199,0.755h-0.743V162.686z M314.17,166.676h0.708v-1.967h0.752l1.243,1.967h0.762l-1.306-2.018
	c0.678-0.069,1.201-0.417,1.201-1.241c0-0.879-0.509-1.305-1.597-1.305h-1.764V166.676z M312.467,164.376
	c0-1.866,1.398-3.311,3.224-3.311c1.808,0,3.21,1.444,3.21,3.311c0,1.911-1.403,3.355-3.21,3.355
	C313.865,167.731,312.467,166.287,312.467,164.376z M311.756,164.376c0,2.244,1.796,3.93,3.935,3.93c2.132,0,3.918-1.686,3.918-3.93
	c0-2.204-1.787-3.884-3.918-3.884C313.552,160.492,311.756,162.172,311.756,164.376z M268.015,158.57v6.527h-16.349v2.074v2.458
	v2.842h1.872h7.258h2.1c3.818,0,6.911,3.092,6.911,6.911v2.458v1.916v1.689c0,3.819-3.093,6.911-6.911,6.911h-18.994v-6.526h18.765
	v-2.074v-1.916v-2.843h-1.871h-7.258h-2.102c-3.817,0-6.911-3.092-6.911-6.911v-2.457v-2.458v-1.69c0-3.813,3.094-6.911,6.911-6.911
	H268.015z M305.486,192.357h-16.579c-3.817,0-6.911-3.092-6.911-6.911v-4.453v-11.059v-4.453c0-3.813,3.094-6.911,6.911-6.911
	h16.579v6.527h-16.349v4.837v2.689h16.349v6.527h-16.349v1.842v4.838h16.349V192.357z M193.531,192.357h-16.579
	c-3.815,0-6.91-3.092-6.91-6.911v-4.453v-11.059v-4.453c0-3.813,3.095-6.911,6.91-6.911h16.579v6.527h-16.347v4.837v2.689h16.347
	v6.527h-16.347v1.842v4.838h16.347V192.357z M98.161,158.57h3.61h12.131c3.817,0,6.911,3.098,6.911,6.911v26.876h-7.141v-27.26
	h-11.901v27.26H94.63V158.57H98.161z M213.495,172.624h12.663v-1.305v-4.912v-1.31h-12.663V172.624z M233.298,166.407v4.912v0.921
	c0,3.536-2.652,6.448-6.073,6.86l6.695,13.257h-8.038l-5.84-13.206h-6.547v13.206h-7.14V158.57h3.457h3.684h12.894
	c3.816,0,6.91,3.098,6.91,6.911V166.407z M137.17,158.57l7.985,28.107l8.447-28.107h8.139l-10.903,33.787h-11.211l-10.443-33.787
	H137.17z M19.609,165.481c0-3.813,3.095-6.911,6.91-6.911h17.738v6.527H26.751v20.733h17.507v6.526H26.52
	c-3.815,0-6.91-3.092-6.91-6.911V165.481z M55.161,165.481c0-3.813,3.095-6.911,6.911-6.911h14.742c3.818,0,6.912,3.098,6.912,6.911
	v19.965c0,3.819-3.094,6.911-6.912,6.911H62.072c-3.816,0-6.911-3.092-6.911-6.911V165.481z M62.303,165.098h14.283v20.733H62.303
	V165.098z M164.849,32.598l9.183,28.265h29.719l-24.043,17.465l9.184,28.27l-24.043-17.47l-24.043,17.47l9.183-28.27l-24.042-17.465
	h29.718L164.849,32.598z M220.25,72.527c0,30.598-24.804,55.399-55.402,55.399s-55.403-24.802-55.403-55.399
	s24.806-55.404,55.403-55.404S220.25,41.93,220.25,72.527z M164.849,7.643c-35.834,0-64.883,29.047-64.883,64.885
	c0,35.833,29.049,64.88,64.883,64.88c35.834,0,64.882-29.047,64.882-64.88C229.73,36.689,200.683,7.643,164.849,7.643z"/>
</svg>
