<svg width="200" height="72" viewBox="135.5 361.375 200 72" overflow="visible" enable-background="new 135.5 361.375 200 72"><path d="M159.23 431.966c-5.84-.232-10.618-1.83-14.354-4.798-.713-.567-2.412-2.267-2.982-2.984-1.515-1.905-2.545-3.76-3.232-5.816-2.114-6.332-1.026-14.64 3.112-23.76 3.543-7.807 9.01-15.55 18.548-26.274 1.405-1.578 5.59-6.193 5.616-6.193.01 0-.218.396-.505.877-2.48 4.154-4.602 9.047-5.758 13.283-1.857 6.797-1.633 12.63.656 17.153 1.58 3.116 4.287 5.815 7.33 7.307 5.33 2.61 13.132 2.827 22.66.632.656-.152 33.162-8.78 72.236-19.176 39.074-10.396 71.05-18.895 71.054-18.888.01.01-90.78 38.86-137.91 59.014-7.465 3.19-9.46 3.997-12.97 5.23-8.97 3.15-17.005 4.652-23.5 4.394z"/></svg>