<svg xmlns="http://www.w3.org/2000/svg" width="511.627" height="511.627" viewBox="0 0 511.627 511.627"><path d="M503.633 117.628c-5.332-5.327-11.8-7.993-19.41-7.993H365.446c-11.417 0-23.603 3.806-36.542 11.42V27.412c0-7.616-2.662-14.092-7.994-19.417C315.578 2.665 309.11 0 301.492 0H182.725c-7.614 0-15.99 1.903-25.125 5.708-9.136 3.806-16.368 8.376-21.7 13.706L19.414 135.9c-5.33 5.33-9.9 12.564-13.706 21.7C1.903 166.737 0 175.107 0 182.724v191.858C0 382.2 2.663 388.676 7.992 394c5.33 5.332 11.803 7.994 19.414 7.994h155.318v82.23c0 7.61 2.662 14.084 7.992 19.41 5.327 5.33 11.8 7.993 19.414 7.993h274.09c7.61 0 14.086-2.662 19.41-7.994 5.333-5.325 7.995-11.8 7.995-19.41V137.046c.002-7.614-2.66-14.088-7.992-19.418zm-174.73 52.82v85.365H243.54l85.366-85.364zM146.18 60.814v85.364H60.814l85.364-85.364zm55.96 184.722c-5.33 5.33-9.9 12.564-13.705 21.7-3.805 9.142-5.708 17.51-5.708 25.127v73.083H36.547v-182.72h118.766c7.616 0 14.087-2.664 19.417-7.994 5.327-5.33 7.994-11.8 7.994-19.41V36.546H292.36v118.77l-90.22 90.218zm272.94 229.55H219.263v-182.73h118.775c7.614 0 14.082-2.662 19.41-7.994 5.328-5.324 7.994-11.796 7.994-19.41V146.18h109.63v328.907h.006z"/></svg>