<svg xmlns="http://www.w3.org/2000/svg" width="217" height="38" viewBox="0 0 217 38"><path d="M18.747 34.122c-7.452 0-13.812-6.76-13.812-14.13 0-7.346 6.228-14.24 13.76-14.24 4.95 0 8.515 2.396 11.416 6.148h3.647c-1.09-1.97-2.262-3.78-4.045-5.19-3.06-2.474-7.026-3.937-10.965-3.937-9.447 0-17.14 7.797-17.14 17.19 0 9.422 7.8 17.14 17.193 17.14 3.832 0 7.584-1.41 10.592-3.78 1.89-1.516 3.22-3.485 4.497-5.507h-3.647c-2.873 3.75-6.546 6.306-11.496 6.306zM56.537 16.158c-2.288-2.954-5.402-4.816-9.26-4.816-6.92 0-12.616 5.615-12.616 12.535s5.723 12.587 12.616 12.587c4.02 0 6.813-1.676 9.26-4.764v4.205h3.01V11.927h-3.01v4.23zm-9.42 17.538c-5.297 0-9.475-4.604-9.475-9.794 0-5.163 4.15-9.793 9.474-9.793 5.296 0 9.42 4.63 9.42 9.792 0 5.19-4.15 9.794-9.42 9.794zM63.19 3.464h3.22v32.44h-3.22zM78.573 32.1L70.43 11.927h-3.194l9.767 23.978h3.247l9.74-23.978h-3.14zM91.32 11.927h3.22v23.98h-3.22zM91.32 3.464h3.22V8.84h-3.22zM108.406 11.342c-3.034 0-5.19 1.597-7.186 3.726v-3.14h-2.98v23.978h3.167v-14.61c-.026-3.86 3.167-7.186 7.052-7.186 4.87 0 7.318 4.23 7.318 8.596v13.2h2.98v-13.2c0-6.228-3.646-11.364-10.352-11.364zM148.645 3.464l-14.637 18.602V3.464h-3.167v32.44h3.168V26.99l4.15-5.163 10.567 14.078h4.018l-12.56-16.633 12.56-15.808zM153.914 3.464h3.14v32.44h-3.14zM183.056 17.968c-2.183-4.072-6.547-6.626-11.15-6.626-6.867 0-12.668 5.722-12.668 12.588 0 6.92 5.855 12.534 12.72 12.534 3.274 0 6.494-1.304 8.863-3.565 1.438-1.36 2.29-3.062 3.062-4.845h-3.38c-1.703 3.326-4.71 5.642-8.596 5.642-2.368 0-4.684-.958-6.44-2.58-1.81-1.65-2.607-3.674-2.954-6.07h22.115c-.002-2.502-.348-4.897-1.57-7.08zm-20.44 4.31c.958-4.496 4.498-8.17 9.342-8.17 4.07 0 8.436 2.502 9.394 8.17h-18.736zM186.968 11.927h3.167v23.98h-3.167zM186.968 3.464h3.167v5.482h-3.167zM204.053 11.342c-3.087 0-5.243 1.597-7.265 3.726v-3.14h-3.034v23.978h3.193v-14.61c-.026-3.886 3.247-7.186 7.16-7.186 4.843 0 7.398 4.23 7.398 8.596v13.2h2.98v-13.2c0-6.228-3.7-11.364-10.432-11.364z"/></svg>