<svg xmlns="http://www.w3.org/2000/svg" viewBox="0 0 302 204.27155" height="204.27" width="302"><path d="M277.983 203.645c-14.03 0-22.35-7.18-22.987-17.52h13.415c0 3.447 1.91 8.035 10.21 8.32 5.752 0 8.935-3.446 8.935-6.037-.636-4.018-5.752-4.303-10.845-5.18-5.753-.835-10.21-2-13.415-3.426-4.457-2.305-7.025-7.2-7.025-12.36 0-9.2 7.684-16.38 21.076-16.38 12.778 0 21.077 6.61 21.692 16.665h-12.756c0-2.57-.637-6.894-8.3-6.894-5.115 0-8.298.856-8.935 4.588 0 5.183 10.846 4.897 19.145 6.895 7.662 2.02 12.778 6.894 12.778 13.81 0 12.646-10.21 17.52-22.987 17.52" clip-path="url(#d)"/><path d="M33.537 118.8L77.58 93.222l23.622 40.53H41.836"/><path d="M126.15 202.12v-51.155" stroke="#fff" stroke-width="12.887584999999998"/><path d="M13.096 177.3c0 8.035 7.026 14.643 14.666 14.643 8.32 0 14.688-6.608 14.688-14.644 0-7.75-6.367-14.645-14.688-14.645-7.64 0-14.666 6.894-14.666 14.644m14.03 26.433c-14.03 0-26.15-11.79-26.15-26.434s12.12-26.15 26.15-26.15c5.75 0 10.867 1.45 15.324 4.59v-4.02h12.778v50.85H42.45v-3.162c-3.82 2.876-9.573 4.325-15.325 4.325" clip-path="url(#c)"/><path d="M197.59 133.74L136.314 26.863 180.354 1l76.602 132.74"/><path d="M71.825 177.3c0 8.035 6.39 14.643 14.688 14.643 7.64 0 14.688-6.608 14.688-14.644 0-7.75-7.047-14.645-14.687-14.645-8.3 0-14.688 6.894-14.688 14.644m14.05 26.433c-14.687 0-26.17-11.79-26.17-26.434s11.483-26.15 26.17-26.15c5.73 0 10.847 1.45 15.326 4.59V134.2h12.757v68.37H101.2v-3.162c-4.478 2.876-9.594 4.325-15.324 4.325" clip-path="url(#b)"/><path d="M85.247 73.12l44.678-25.27 49.158 85.887h-46.61v12.646h-12.757v-12.646"/><g clip-path="url(#a)"><path d="M292.692 146.782c-3.205 0-6.39-2.876-6.39-6.323s3.185-6.324 6.39-6.324c3.82 0 6.39 2.876 6.39 6.323s-2.57 6.322-6.39 6.322m0-11.768c-3.205 0-5.116 2.57-5.116 5.445s1.91 5.466 5.116 5.466c3.183 0 5.094-2.59 5.094-5.467s-1.91-5.446-5.094-5.446M294.01 143.927l-1.273-2.876h-1.274v2.877h-.966v-6.894h2.876c.637 0 1.91.878 1.91 2.02s-.636 1.712-1.273 1.998l1.273 2.877m-2.546-6.016h-1.274v2.285h1.274c1.273 0 1.273-.286 1.273-1.142 0-.593 0-1.142-1.273-1.142M208.385 177.3c0 8.035 6.39 14.643 14.688 14.643 7.662 0 14.666-6.608 14.666-14.644 0-7.75-7.005-14.645-14.667-14.645-8.3 0-14.688 6.894-14.688 14.644m14.03 26.433c-14.667 0-26.15-11.79-26.15-26.434s11.483-26.15 26.15-26.15c5.75 0 10.867 1.45 15.324 4.59v-4.02h12.14v50.85h-12.14v-3.162c-4.458 2.876-9.574 4.325-15.326 4.325"/><path d="M149.7 177.3c0 8.035 7.026 14.643 14.688 14.643 8.3 0 14.688-6.608 14.688-14.644 0-7.75-6.39-14.645-14.688-14.645-7.662 0-14.688 6.894-14.688 14.644m29.376-43.1h12.756v68.37h-12.756v-3.162c-3.842 2.876-8.958 4.325-14.688 4.325-14.688 0-26.807-11.79-26.807-26.434s12.12-26.15 26.808-26.15c5.73 0 10.846 1.45 14.688 4.59V134.2z"/></g></svg>