<svg xmlns="http://www.w3.org/2000/svg" width="92.65" height="92.651" viewBox="0 0 92.65 92.651"><path d="M90.75 46.272H77.58l1.88-7.603h11.29c1.05 0 1.9-.853 1.9-1.902 0-1.05-.852-1.9-1.9-1.9H80.4l2.292-9.27c.583-2.39.88-4.128.88-5.162 0-1.283-.432-2.315-1.318-3.158-.904-.858-1.978-1.276-3.283-1.276-1.28 0-2.24.306-2.853.908-.716.706-1.205 1.476-1.494 2.355-.333 1.01-.69 2.436-1.067 4.237l-2.55 11.366H56.714l-2.44-9.013c-.736-2.695-1.327-4.646-1.755-5.798-.373-1.002-1.067-1.955-2.065-2.833-.923-.81-2.29-1.223-4.064-1.223-1.765 0-3.15.4-4.12 1.19-1.03.837-1.778 1.837-2.228 2.97-.505 1.28-1.092 3.192-1.742 5.685l-2.42 9.022H21.645L19.1 23.517c-.558-2.632-1.204-4.638-1.923-5.975-.206-.38-.832-1.542-3.496-1.542-1.327 0-2.405.42-3.292 1.286-.88.857-1.308 1.89-1.308 3.148 0 1.144.295 2.876.877 5.152l2.294 9.28H1.9c-1.05 0-1.9.85-1.9 1.9s.85 1.9 1.9 1.9h11.29l1.88 7.602H1.9c-1.05 0-1.9.853-1.9 1.9 0 1.05.85 1.9 1.9 1.9h14.11l4.09 16.545c.302 1.21.646 2.523 1.032 3.943.358 1.318.82 2.467 1.375 3.41.51.868 1.152 1.52 1.964 1.987.8.46 1.867.695 3.175.695 1.613 0 2.847-.38 3.773-1.158.976-.82 1.665-1.75 2.047-2.76.443-1.167 1.054-3.14 1.816-5.863l4.588-16.8h12.97l4.533 16.81c.79 2.8 1.408 4.802 1.836 5.94.368.978 1.048 1.882 2.02 2.687.915.76 2.187 1.145 3.78 1.145 1.69 0 2.986-.393 3.854-1.16.938-.83 1.61-1.81 2-2.9.44-1.248 1.012-3.26 1.69-5.98l4.09-16.543h14.11c1.05 0 1.9-.85 1.9-1.9 0-1.043-.85-1.895-1.9-1.895zM70.153 38.67l-1.705 7.602h-8.646l-2.06-7.602h12.41zM46.395 26.173l2.344 8.695h-4.72l2.375-8.695zM22.498 38.67h12.358l-2.04 7.602h-8.613l-1.705-7.602zm5.627 25.082l-3.07-13.68h6.74l-3.67 13.68zm12.782-17.48l2.075-7.603h6.78l2.052 7.602H40.907zM64.532 63.73l-3.7-13.657h6.764L64.532 63.73z"/></svg>