<?xml version="1.0" encoding="iso-8859-1"?>
<!-- Generator: Adobe Illustrator 19.0.0, SVG Export Plug-In . SVG Version: 6.00 Build 0)  -->
<svg version="1.1" id="Layer_1" xmlns="http://www.w3.org/2000/svg" xmlns:xlink="http://www.w3.org/1999/xlink" x="0px" y="0px"
	 viewBox="0 0 330 330" style="enable-background:new 0 0 330 330;" xml:space="preserve">
<g id="XMLID_11_">
	<path id="XMLID_12_" d="M202.5,122.5c-10.482,0-20.084,3.822-27.502,10.136C181.304,141.862,185,153.006,185,165
		s-3.696,23.138-10.002,32.364c7.418,6.314,17.02,10.136,27.502,10.136c23.435,0,42.5-19.065,42.5-42.5S225.935,122.5,202.5,122.5z"
		/>
	<path id="XMLID_13_" d="M315,42.857H15c-8.284,0-15,6.716-15,15v214.285c0,8.284,6.716,15,15,15h300c8.284,0,15-6.716,15-15V57.857
		C330,49.573,323.284,42.857,315,42.857z M202.5,222.5c-14.32,0-27.424-5.274-37.5-13.966c-10.076,8.691-23.18,13.966-37.5,13.966
		C95.794,222.5,70,196.706,70,165s25.794-57.5,57.5-57.5c14.32,0,27.424,5.274,37.5,13.966c10.076-8.691,23.18-13.966,37.5-13.966
		c31.706,0,57.5,25.794,57.5,57.5S234.206,222.5,202.5,222.5z"/>
</g>
<g>
</g>
<g>
</g>
<g>
</g>
<g>
</g>
<g>
</g>
<g>
</g>
<g>
</g>
<g>
</g>
<g>
</g>
<g>
</g>
<g>
</g>
<g>
</g>
<g>
</g>
<g>
</g>
<g>
</g>
</svg>
