<svg xmlns="http://www.w3.org/2000/svg" viewBox="0 0 56.48 56.48" enable-background="new 0 0 56.48 56.48"><path d="M55.026 9.94H1.454C.65 9.94 0 10.59 0 11.392v33.695c0 .803.65 1.454 1.454 1.454h53.572c.804 0 1.454-.65 1.454-1.454V11.393c0-.803-.65-1.454-1.454-1.454zM4.373 21H10.4c.814.03 1.47.29 1.695 1.16l1.31 6.304c-1.287-3.298-4.39-6.042-9.082-7.178l.05-.286zm7.294 14.38L8.185 23.484c2.503 1.602 4.635 4.144 5.386 5.913l.407 1.47 3.808-9.73h4.12l-6.123 14.24-4.115.003zm13.266.01h-3.888l2.43-14.268h3.89L24.934 35.39zm6.766.214c-1.744-.018-3.423-.363-4.333-.762l.547-3.193.5.226c1.278.533 2.105.75 3.662.75 1.117 0 2.314-.438 2.325-1.394.008-.625-.5-1.07-2.014-1.77-1.476-.683-3.43-1.827-3.406-3.876.02-2.773 2.73-4.708 6.572-4.708 1.506 0 2.713.31 3.483.6l-.525 3.092-.35-.165c-.717-.288-1.638-.566-2.91-.546-1.523 0-2.23.633-2.23 1.226-.007.668.825 1.108 2.185 1.77 2.243 1.018 3.28 2.253 3.266 3.876-.03 2.96-2.682 4.872-6.77 4.872zm16.85-.208s-.356-1.64-.474-2.138l-4.98-.006c-.15.385-.817 2.144-.817 2.144h-4.084L43.97 22.32c.41-.928 1.104-1.183 2.036-1.183h3.004l3.147 14.258H48.55zM46.542 26.215l-.262-1.23c-.198.537-.54 1.4-.517 1.362l-1.55 3.988h3.23l-.9-4.12z"/></svg>