<svg xmlns="http://www.w3.org/2000/svg" width="438.533" height="438.533" viewBox="0 0 438.533 438.533"><path d="M396.283 130.188c-3.806-9.135-8.37-16.365-13.703-21.695l-89.078-89.08c-5.332-5.326-12.56-9.896-21.697-13.705C262.672 1.903 254.297 0 246.687 0H63.953C56.34 0 49.87 2.663 44.54 7.993c-5.33 5.327-7.994 11.8-7.994 19.414v383.72c0 7.616 2.664 14.088 7.994 19.416 5.33 5.325 11.8 7.99 19.414 7.99h310.633c7.61 0 14.08-2.665 19.407-7.99 5.328-5.332 7.994-11.8 7.994-19.417V155.313c.003-7.614-1.9-15.99-5.705-25.125zM255.816 38.826c5.517 1.903 9.418 4 11.704 6.28l89.366 89.366c2.28 2.286 4.374 6.186 6.276 11.706H255.816V38.826zM365.45 401.99H73.09V36.546h146.177v118.77c0 7.615 2.662 14.085 7.992 19.415 5.33 5.327 11.8 7.994 19.416 7.994H365.45V401.99z"/></svg>