<svg xmlns="http://www.w3.org/2000/svg" width="1024" height="142" viewBox="-1.28279994 -1.28279994 327.48759988 45.32559788"><path d="M52.65 42.76H0v-1.582L39.436 2.57H6.776l-.94 9.625H3.43L4.51.975h49.26v1.132l-40.05 39.07 36.362.005.995-12.132h2.693l-1.12 13.71zm243.954-13.03h-21.816l-7.03 11.447h12.71v1.582h-24.893v-1.583h9.473L290.1.007h1.57l24.022 41.17h9.23v1.582h-32.726v-1.583h11.1l-6.692-11.446zm-20.857-1.582h19.93l-9.685-16.73h-.196l-10.05 16.73zm-161.07 1.578H92.866l-7.03 11.44h12.71v1.59H73.65v-1.59h9.48L108.175 0h1.572l24.02 41.167H143v1.588h-32.723v-1.588h11.098l-6.697-11.44zm-21.186-1.582h19.93l-9.684-16.73h-.19L93.49 28.145zm83.202 13.034V2.57h-10.807V.977h37.637l13.53.083c7.245.043 9.095 5.725 9.095 9.55 0 5.176-1.268 9.387-9.055 10.82-.14.03-1.165.076-2.613.13l11.415 19.618h9.23v1.582h-20.72L201.92 21.53l-13.045-.006v19.654h10.803v1.582h-33.793v-1.582h10.807zM188.876 2.57V19.93l12.132-.04c2.597-.01 4.618-.272 6.153-.512 2.073-.332 3.737-1.16 4.98-2.525 1.258-1.356 1.876-3.526 1.876-6.492 0-2.428-.634-4.205-1.892-5.33-1.258-1.117-2.8-1.808-4.582-2.073-1.803-.258-4.143-.384-7.04-.384h-11.626z" fill-rule="evenodd"/></svg>