<svg xmlns="http://www.w3.org/2000/svg" width="325" height="200" viewBox="0 0 325 200"><path fill-rule="evenodd" clip-rule="evenodd" d="M314.878 162.686h.94c.48 0 1.002.093 1.002.7 0 .722-.574.754-1.2.754h-.742v-1.454zm-.708 3.99h.708v-1.967h.752l1.243 1.966h.762l-1.306-2.018c.677-.07 1.2-.417 1.2-1.24 0-.88-.51-1.306-1.597-1.306h-1.764v4.564zm-1.703-2.3c0-1.866 1.398-3.31 3.224-3.31 1.81 0 3.21 1.443 3.21 3.31 0 1.91-1.402 3.355-3.21 3.355-1.825 0-3.223-1.443-3.223-3.354zm-.71 0c0 2.244 1.795 3.93 3.934 3.93 2.133 0 3.92-1.686 3.92-3.93 0-2.204-1.788-3.884-3.92-3.884-2.138 0-3.934 1.68-3.934 3.884zm-43.742-5.806v6.527h-16.35v7.374h11.231c3.818 0 6.91 3.093 6.91 6.912v6.064c0 3.818-3.092 6.91-6.91 6.91h-18.994v-6.526h18.765v-6.833H251.437c-3.818 0-6.912-3.092-6.912-6.91V165.478c0-3.812 3.094-6.91 6.91-6.91h16.58zm37.47 33.787h-16.578c-3.817 0-6.91-3.092-6.91-6.91V165.48c0-3.812 3.093-6.91 6.91-6.91h16.58v6.527h-16.35V172.624h16.35v6.526h-16.35v6.68h16.35v6.527zm-111.954 0h-16.578c-3.815 0-6.91-3.092-6.91-6.91V165.48c0-3.812 3.095-6.91 6.91-6.91h16.58v6.527h-16.348V172.624h16.347v6.526h-16.346v6.68h16.347v6.527zM98.16 158.57H113.903c3.817 0 6.91 3.098 6.91 6.91v26.877h-7.14v-27.26h-11.9v27.26H94.63V158.57h3.53zm115.335 14.054h12.663V165.096h-12.663v7.527zm19.803-6.217v5.832c0 3.536-2.652 6.448-6.073 6.86l6.695 13.257h-8.038l-5.84-13.206h-6.547v13.207h-7.14V158.57h20.035c3.816 0 6.91 3.098 6.91 6.91v.927zm-96.128-7.837l7.985 28.107 8.447-28.107h8.14l-10.904 33.787h-11.21l-10.444-33.787h7.986zm-117.56 6.91c0-3.812 3.094-6.91 6.91-6.91h17.737v6.527H26.75v20.733H44.26v6.526H26.52c-3.815 0-6.91-3.092-6.91-6.91V165.48zm35.55 0c0-3.812 3.096-6.91 6.912-6.91h14.742c3.818 0 6.912 3.098 6.912 6.91v19.966c0 3.82-3.094 6.91-6.912 6.91H62.072c-3.816 0-6.91-3.09-6.91-6.91V165.48zm7.143-.382h14.283v20.733H62.303V165.1zm102.546-132.5l9.182 28.265h29.72l-24.044 17.465 9.184 28.27-24.043-17.47-24.044 17.47 9.183-28.27-24.043-17.465h29.718l9.184-28.265zm55.4 39.93c0 30.597-24.804 55.398-55.402 55.398s-55.403-24.802-55.403-55.4 24.806-55.403 55.403-55.403S220.25 41.93 220.25 72.527zm-55.4-64.885c-35.835 0-64.884 29.047-64.884 64.885 0 35.833 29.05 64.88 64.883 64.88s64.88-29.047 64.88-64.88c0-35.84-29.047-64.885-64.88-64.885z"/></svg>