<svg version="1.2" baseProfile="tiny" xmlns="http://www.w3.org/2000/svg" width="502.921" height="104.794" viewBox="0 0 502.921 104.794"><path d="M502.3 24.062H180.797v65.083H502.92V24.062h-.62zm-13.197 57.156h5.627v.83h-2.322v6.42h-.98v-6.42h-2.324v-.83z" fill="none"/><path d="M491.427 88.467h.98V82.05h2.323v-.832h-5.627v.83h2.324z"/><path d="M502.3 24.062H180.797v65.083H502.92V24.062h-.62zm-6.668 57.156h1.352l2.102 6.19 2.033-6.19h1.18v7.25h-.81v-5.89l-1.953 5.89h-.97l-1.954-5.89v5.89h-.98v-7.25z" fill="none"/><path d="M496.613 82.577l1.953 5.89h.97l1.954-5.89v5.89h.81v-7.25h-1.18l-2.035 6.192-2.1-6.192h-1.353v7.25h.98zM335.36 71.1V41.127c0-6.115 2.855-10.494 8.942-10.494h37.547c.23 0 .45-.228.45-.454v-5.964c0-.052-.015-.103-.035-.152h-45.91c-9.95 1.265-14.81 8.2-14.81 17.064V71.1c0 6.115-2.935 10.495-8.94 10.495H272.95c-.225 0-.45.15-.45.453v5.965c0 .247.15.436.33.5h45.018c11.734-.31 17.51-7.8 17.51-17.412zM181.104 88.513h13.183c.178-.063.33-.252.33-.5V68.912c0-6.114 3.454-10.343 8.486-10.343h54.3c12.243 0 18.177-7.55 18.177-17.44 0-8.865-4.857-15.8-14.813-17.065H180.86c-.023.05-.062.09-.062.152v5.964c0 .302.15.454.45.454h71.574c6.084 0 8.938 4.38 8.938 10.494 0 6.116-2.854 10.495-8.938 10.495h-56.628c-8.787 0-15.396 7.477-15.396 17.29v19.104c0 .247.105.435.306.5z"/><path d="M393.714 74.65h60.465c.22 0 .45-.228.45-.454V36.974c0-.83-.752-.906-1.13-.604l-60.157 37.223c-.38.227-.53.453-.45.755.07.15.3.3.82.3z" fill="none"/><path d="M382.08 81.596h72.1c.22 0 .37.15.37.302v6.116c0 .302.23.453.452.453h12.996c.23 0 .45-.15.45-.453V82.05c0-.228.23-.454.45-.454h12.916c.3 0 .45-.227.45-.452v-6.04c0-.228-.15-.454-.45-.454h-12.916c-.22 0-.45-.227-.45-.453V30.632c0-3.555-1.322-5.82-3.543-6.57h-3.76c-1.172.3-2.446.84-3.812 1.66L379.677 73.67c-3.004 1.887-4.057 4-3.305 5.586.6 1.36 2.323 2.342 5.708 2.342zm11.263-8.003L453.5 36.37c.38-.302 1.13-.226 1.13.604v37.223c0 .227-.23.453-.45.453h-60.465c-.52 0-.752-.15-.822-.302-.08-.302.07-.53.45-.755zM50.372 0c5.858 1.092 11.616 2.652 17.346 4.278 3.278.952 6.547 1.937 9.795 2.986 5.102 1.625 10.182 3.465 14.803 6.21 2.07 1.256 4.058 2.676 5.757 4.408 1.84 1.8 3.348 3.933 4.454 6.255 2.015 4.208 2.705 8.91 2.91 13.53.095 3.017.09 6.06-.474 9.036-.468 2.587-1.3 5.138-2.684 7.385-1.223 1.985-2.922 3.7-4.984 4.807-1.978 1.066-4.243 1.574-6.486 1.53-3.402.035-6.703-1.05-9.756-2.47-.055-10.154-.008-20.31-.024-30.46-.022-1.838.103-3.694-.267-5.506-.26-1.405-.833-2.82-1.935-3.773-.73-.66-1.678-1.03-2.63-1.232-.963-.183-1.99.226-2.586 1-.99 1.237-1.25 2.88-1.296 4.422-.008 27.18.01 54.363-.008 81.542-7.312-2.318-14.625-4.637-21.935-6.96-.008-32.33-.005-64.66 0-96.99zM17.506 68.783C27.04 65.408 36.562 62 46.1 58.637c.014 3.743 0 7.487.005 11.233-.006.508.027 1.018-.037 1.523-7.538 2.672-15.06 5.39-22.592 8.08-1.044.394-2.115.84-2.92 1.638-.375.375-.68.927-.475 1.463.26.63.903.974 1.497 1.234 1.652.672 3.458.767 5.218.848 1.962-.03 3.932-.178 5.854-.602 1.298-.255 2.548-.693 3.786-1.158 3.218-1.165 6.436-2.337 9.66-3.49.023 3.166.003 6.334.01 9.503-.01.633.028 1.27-.035 1.9-3.957.712-7.962 1.195-11.985 1.258-8.1.183-16.22-1.07-23.916-3.603-2.525-.73-5.033-1.704-7.14-3.307C1.87 84.258.832 83.13.304 81.74c-.442-1.176-.41-2.535.14-3.67.532-1.132 1.46-2.027 2.482-2.722 2.365-1.633 4.973-2.878 7.616-3.99 2.277-.97 4.64-1.727 6.964-2.575zM94.21 64.52c2.16-.25 4.337-.31 6.51-.387 7.15.027 14.338.917 21.178 3.062 1.342.408 2.642.936 3.98 1.362 2.382.87 4.768 1.927 6.676 3.64 1.147 1.046 2.135 2.455 2.15 4.064.067 1.31-.526 2.566-1.375 3.532-1.617 1.812-3.753 3.057-5.898 4.143-2.283 1.164-4.737 1.915-7.13 2.8-14.613 5.248-29.226 10.493-43.836 15.746-.002-4.092.004-8.184-.002-12.275.022-.163-.068-.448.163-.49 11.118-3.957 22.233-7.924 33.35-11.89 1.502-.562 3.12-.97 4.397-1.99.522-.41 1.033-1.06.777-1.764-.266-.614-.904-.955-1.49-1.21-1.665-.658-3.477-.786-5.247-.835-2.77.02-5.567.36-8.202 1.25-7.918 2.774-15.823 5.583-23.744 8.35 0-4.396-.002-8.788.002-13.182 5.73-2.01 11.715-3.23 17.74-3.923zM126.692 94.796c1.73-.216 3.535.56 4.57 1.96 1.132 1.447 1.34 3.533.54 5.185-.806 1.715-2.65 2.916-4.56 2.853-1.756.04-3.458-.984-4.323-2.5-.783-1.334-.876-3.043-.27-4.463.68-1.64 2.28-2.836 4.042-3.034zm-.376.923c-.968.22-1.847.806-2.425 1.613-.694.95-.957 2.205-.693 3.354.222 1.067.897 2.02 1.808 2.61 1.403.923 3.37.872 4.712-.14 1.385-.98 2.043-2.858 1.567-4.485-.294-1.1-1.08-2.036-2.07-2.58-.88-.47-1.93-.604-2.898-.373zM125.118 96.896c.9-.005 1.805 0 2.707-.003.51.007 1.072.126 1.433.517.364.41.393 1.008.293 1.523-.055.34-.355.54-.572.78.19.166.43.323.475.595.104.52-.006 1.068.16 1.578.106.18.213.362.22.578-.373.01-.746.003-1.12.01-.252-.594-.064-1.26-.22-1.872-.063-.25-.32-.404-.567-.396-.61-.026-1.222-.008-1.83-.01-.01.76.022 1.52-.018 2.277-.318-.005-.637-.005-.955 0-.016-1.86-.005-3.718-.005-5.577zm.978.884v1.54c.545.004 1.09.008 1.638.003.27-.002.586-.053.762-.283.185-.293.18-.683.014-.98-.14-.236-.437-.26-.68-.274-.58-.017-1.157-.007-1.734-.006z"/></svg>