<svg xmlns="http://www.w3.org/2000/svg" width="1265.19" height="345.825" viewBox="0 0 55.244 15.1"><path d="M.002.05L53.11.09V15.1H0L.002.05zm1.53 1.612v11.904h50.046V1.662H1.53"/><path d="M16.668 3.192h2.382l2.508 8.846h-1.785l-.596-2.21H16.54s-.456 1.777-.553 2.167c-.53.042-1.827 0-1.827 0l2.508-8.803zm1.148 1.49l-.936 3.74h1.956l-1.02-3.74"/><path d="M44.05 3.192h3.658v1.15h-2.383v1.273h2.17v1.15h-2.17V8.08h2.383v1.15h-3.7l.042-6.038"/><path d="M33.42 3.192h1.788l1.7 6.592 1.658-6.592h1.786l-2.68 8.846h-1.574L33.42 3.192"/><path d="M25.896 3.192h1.702v7.356h3.696v1.49h-5.44c0-2.927-.075-5.995.042-8.846"/><path d="M4.634 3.192H6.38l1.7 6.676 1.657-6.676h1.83l-2.68 8.846H7.27L4.634 3.192"/><path d="M54.378 0c.48 0 .865.393.865.883 0 .498-.385.886-.87.886-.48 0-.874-.39-.874-.887 0-.49.392-.883.873-.883h.01zm-.01.14c-.387 0-.705.332-.705.743 0 .422.318.746.71.746.392.005.704-.325.704-.74 0-.418-.313-.75-.703-.75h-.01zm-.165 1.255h-.154V.412c.08-.01.157-.023.276-.023.147 0 .246.032.305.072.06.044.09.11.09.204 0 .13-.085.208-.19.24v.008c.086.016.145.096.166.237.022.154.045.214.06.244h-.163c-.02-.03-.044-.12-.063-.247-.02-.127-.086-.174-.21-.174h-.11v.422zm0-.543h.114c.128 0 .238-.048.238-.17 0-.085-.063-.17-.238-.17-.05 0-.086.002-.114.007V.85"/></svg>