<svg xmlns="http://www.w3.org/2000/svg" enable-background="new 0 0 800 261.953" height="67.488" viewBox="0 0 201.99998 67.488425" width="202"><path d="M168.12 56.832c-.003 0-.62.55-.62.55-.878.785-1.783 1.627-2.876 1.206-.3-.11-.514-.512-.565-.824-.05-2.25.963-4.336 1.946-6.366l.252-.53c2.827-4.72 6.113-10.283 10.94-14.143.812-.587 1.695-1.08 2.626-.695.214.2.464.548.464.896 0 .11-.098.402-.154.493-1.348 2.177-2.632 4.464-3.88 6.66-2.44 4.336-4.97 8.818-8.134 12.752zm-26.15-11.124c-.184.13-3.444-.97-4.074-3.988-.534-2.6 1.255-4.63 2.987-5.654.743-.585 1.863-.786 2.684-.495.762.514.97 1.43.97 2.416 0 .605-.082 1.227-.152 1.794l-.016.128c-.544 2.03-1.376 4.025-2.4 5.8zm-12.453 12.277c-.333-.494-.443-1.034-.454-1.618-.064-3.588 3.796-10.012 6.52-13.512h.007c1.142 2.5 3.727 4.107 5.288 4.784-1.94 4.317-8.587 13.565-11.36 10.345zm47.054.637c-.644.44-1.55.102-1.212-.904.844-2.562 4.2-7.782 4.2-7.782l9.35-16.582h-6.404c-.304.5-.955 1.648-.955 1.648-.298-.493-1.183-1.59-1.548-1.828-1.565-.99-3.86-.52-5.444.375-6.885 4.025-11.908 11.98-15.87 18.18 0 0-4.17 6.896-6.485 7.41-1.807.146-1.62-2.29-1.542-2.856.7-4.1 2.322-7.996 3.957-11.527 3.325-2.305 7.12-5.324 10.57-8.636 7.484-7.153 13.793-15.26 14.715-17.07 0 0-.998.202-2.177.238-5.758 8.032-17.54 19.706-21.113 21.443 1.583-3.805 11.807-21.973 20.508-30.663l1.37-1.318c2.116-2.068 4.31-4.19 6.02-4.538.18-.018.412 0 .613.42.077 1.61-.523 2.8-1.21 4.154l-.964 1.977s1.364-.257 2.26-.55c1.04-1.957 2.192-4.153 1.767-6.77-.14-.84-.75-1.48-1.547-1.628-2.595-.494-5.424 1.427-7.7 2.983l-.092.054c-11.7 9.167-21.58 22.377-30.218 40.417-.626.474-3.045 1.042-3.456.767.853-1.756 1.927-4.117 2.465-6.678.092-.733.178-1.483.178-2.215 0-1.574-.378-3.056-1.79-4.08-1.653-.824-3.697-.44-5.075.183-6.175 2.56-10.79 8.892-14.12 14.106-1.79 3.312-3.576 6.86-4.07 10.923-.35 3.183.36 5.232 2.17 6.257 1.86.95 4.204-.038 5.124-.513 6.255-3.292 10.626-9.897 14.07-15.935.138-.018 2.02-.072 3.442-.44.018 0 .026 0 .057.02-.08.274-.816 2.47-.816 2.47-2.183 6.403-3.193 10.758-1.13 13.338 2.947 3.64 7.826-.128 11.796-5.105-.852 5.964 2.24 6.898 4.595 6.44 2.708-.73 5.724-3.622 7.124-5.104-.45 1.738-.327 4.85 2.135 5.16 1.687.312 2.95-.606 4.41-1.393 5.243-2.854 11.52-12.365 13.148-15.115h-2.136c-2.316 3.5-5.263 8.09-8.97 10.268zM95.81 23.104h6l3.386-5.5h-6zm95.84-14.61c-4.574 2.597-9.316 4.28-15.057 3.695-1.59 1.792-3.14 3.64-4.568 5.543 8.057 2.05 16.6-2.507 21.363-6.842 5.04-4.372 7.624-9.88 7.624-9.88s-3.777 4.318-9.36 7.483zm-50.45-1.39c-.953 10.94-9.458 17.363-11.562 17.874-1.275.256-3.45-.31-1.51-4.903 2.862-6.185 7.746-11.435 12.986-14.125.128.458.124.75.087 1.153zm-16.57 27.57c-.61-1.316-2.057-2.158-3.598-2.067-5.006.458-9.902 4.575-12.473 10.484-1.35 3.04-2.086 5.545-2.57 9.534 1.557-1.793 4.732-4.738 8.335-6.35 0 .002.49-3.822 2.99-7.226.947-1.41 2.84-3.677 4.966-3.074 1.858.623 1.205 5.764-1.263 10.74-1.827 3.66-4.622 7.32-7.45 9.844-2.5 2.122-6.2 4.683-9.436 2.708-2.037-1.207-3.077-3.733-2.857-6.99.974-9.24 5.18-17.107 11.198-26.072 6.207-8.324 13.048-16.87 22.264-21.426 1.88-.95 3.62-1.17 5.125-.585 0 0-8.652 4.757-12.776 13.558-1.05 2.234-2.508 5.252-1.04 7.923.77 1.39 2.132 1.5 3.23 1.427 5.054-1.17 8.32-5.89 10.988-10.21 1.547-3.274 2.922-6.53 2.922-10.154 0-.44-.022-1.024-.06-1.464 2.415-1.28 7.367.988 7.367.988 3.87 1.28 12.11 7.594 14.89 8.8 1.356-1.572 3.584-3.95 4.84-5.14l-1.817-1.116c-2.908-1.775-5.98-3.458-9.006-5.123-6.87-3.75-12.462-2.432-15.308-1.408-1.12.403-2.142.75-2.142.75-2.112-2.305-5.576-2.086-8.128-1.463-9.178 2.633-17.7 9.055-26.836 20.198C100.267 30.485 96.1 38.024 93.88 45.47c-1.712 5.012-2.232 12.386 1.946 16.76 3.552 3.712 8.263 2.907 11.59 1.572 7.206-3.55 13.683-11.198 16.91-19.998.78-2.616 1.644-6.312.303-9.13zm-79.886-8.488c-.012.037-1.224 2.817-1.224 2.817-.175.147-.452.074-.77 0l-.544-.092c-1.708-.53-2.997-1.663-3.394-3.017-.548-2.635 1.703-4.702 2.695-5.452.95-.658 2.43-1.006 3.29-.33.53.624.73 1.428.73 2.307 0 1.19-.367 2.525-.783 3.77zm-2.603 5.287s-.054.165-.082.22c-.007 0-2.755 4.48-2.755 4.48-1.658 2.216-3.73 4.997-6.317 6.332-.768.257-1.828.422-2.37-.255-1.144-1.372-.554-3.275-.074-4.812l.17-.55c1.375-3.73 3.558-7.025 5.682-10.08.026-.02.086-.037.107-.037.006.02.015.02.018.056 1.333 2.56 3.833 3.75 5.702 4.3.012 0 .024.018.024.055 0 .055-.03.13-.103.293zm34.377-2.945c1.23-1.7 4.807-6.257 5.68-7.026 2.932-2.58 4.105-1.445 4.206-.64-2.738 4.903-5.97 10.52-9.007 15.57.006-.02-.95 1.445-.95 1.445-1.342 2.048-2.693 3.805-4.897 5.03-.315.093-.833.13-1.178-.128-.415-.275-.58-.733-.532-1.21.132-1.572 1.734-6.383 6.676-13.043zM46.052 17.404c-3.793-2.488-11.415 2.27-17.52 10.428-5.583 7.32-7.994 15.826-5.37 19.76 3.902 4.63 11.147-2.104 14.228-5.708l.398-.42c2.095-2.252 3.714-4.96 5.28-7.558 0 0 1.44-2.38 1.51-2.49.89-.163 1.96-.42 3.17-.767-.018.054-4.622 7.793-4.153 11.635.147 1.172.035 5.454 4.215 6.752 5.57.934 10.02-3.384 13.944-7.227 0 0 .67-.64 1.047-1.005l-.22.895c-1.63 5.672.568 6.862 1.943 7.3 4.156 1.21 9.122-4.83 9.138-4.83-.128 1.903-.505 3.477 1.5 4.74 1.893.677 3.808-.356 5.264-1.326 5.244-3.696 9.468-9.48 12.88-14.48h-2.177c-.025 0-5.37 7.747-8.84 9.43-.006 0-.638.325-1.002.07-.45-.386-.273-1.185.005-1.75.017-.038 13.4-23.25 13.4-23.25h-6.318s-.69 1.117-.747 1.19c-.042-.036-.143-.228-.214-.32-3.914-5.416-12.78 2.914-19.455 12.574-2.57 3.714-5.84 7.896-9.234 10.916 0 0-5.024 4.607-7.172 1.297-.785-1.39-.543-3.423-.1-4.76 2.5-7.116 6.808-13.575 11.71-17.473 1.385-1.078 2.89-1.39 3.635-.933.712.422.826 1.464.376 2.177-1.142-.035-2.057.312-2.8 1.08-1.466 1.537-1.975 3.02-1.51 4.41 2.264 3.22 6.776-3.147 6.558-7.026-.078-1.39-.82-2.707-1.927-3.348-1.65-.988-4.167-.732-5.796.055-2.18.824-5.634 3.696-7.65 5.93-2.536 2.8-6.887 5.91-8.248 5.56.446-1.19 4.12-8.71.255-11.526zm31.762 40.71c-7.442-4.795-17.542-5.636-33.83-1.117-17.364 4.08-23.154 6.696-30.757 1.445-2.92-2.58-3.97-6.733-3.187-12.715 1.814-9.753 6.716-19.138 15.422-29.548 4.86-5.417 9.368-10.064 15.32-11.93 4.562-1.17 4.136 2.414 3.584 2.927-.583 0-1.56.092-2.317.585-.615.476-2.3 2.013-2.39 4.08-.13 3.166 3.145 2.507 4.557.77 1.523-1.96 3.774-5.71 2.003-9.204-.742-1.244-2.024-2.104-3.615-2.397C37.155.7 32.078 3.3 27.393 6.17 17.15 13.29 8.953 23.15 4.317 33.946 1.643 40.458-.775 49.788 2.85 57.382c2.803 5.27 8.624 8.067 15.57 7.482 4.87-.512 10.76-2.086 14.72-3.036 3.963-.952 24.24-7.923 30.902 4.21 0 0 2.216-4.302 7.753-4.394 4.552-.42 11.12 1.318 15.9 4.83-1.593-2.396-6.11-5.927-9.878-8.36z"/></svg>