<svg xmlns="http://www.w3.org/2000/svg" width="37.866" height="37.866" viewBox="0 0 37.866 37.866"><path d="M24.617 19.115c-.377-.22-.922-.418-1.635-.6.664-.227 1.198-.51 1.604-.856.404-.347.715-.744.93-1.194.216-.45.322-.927.322-1.43 0-.69-.202-1.324-.61-1.902-.405-.578-.986-1.02-1.742-1.33-.292-.12-.64-.21-1.02-.283V8.84H19.89v2.5h-1.656v-2.5h-2.576v2.5h-3.93v2.105h.6c.4 0 .67.036.813.11s.243.17.3.293c.06.124.088.41.088.86v8.482c0 .443-.03.73-.087.856-.058.127-.157.226-.3.294-.14.07-.412.104-.81.104h-.6v2.104h3.928v2.502h2.576v-2.502H19.7l.19-.002v2.504h2.574v-2.72c.434-.083.813-.187 1.138-.317.89-.353 1.577-.873 2.062-1.552.485-.68.73-1.424.73-2.23 0-.676-.16-1.288-.48-1.837-.32-.543-.752-.97-1.297-1.275zm-7.327-5.32h1.667c.975 0 1.65.06 2.028.18.38.12.667.32.867.604.2.283.3.624.3 1.023 0 .386-.104.726-.315 1.02s-.524.516-.942.66c-.417.146-1.062.22-1.936.22H17.29l-.002-3.71zM22 23.19c-.298.38-.658.63-1.083.748-.425.12-.96.18-1.604.18h-1.11c-.37 0-.597-.02-.68-.06-.084-.04-.144-.11-.18-.213-.03-.08-.047-.353-.054-.816v-3.296h1.968c.862 0 1.505.08 1.926.24.42.16.735.396.945.71.21.312.315.693.315 1.145.002.53-.148.983-.446 1.36zm14.35-10.993c.375-.342.707-.733.957-1.19.585-1.076.716-2.315.37-3.49-.57-1.935-2.377-3.287-4.394-3.287-.438 0-.876.063-1.3.188-.296.087-.577.203-.845.343C24.678-.773 15.3-1.242 8.328 3.625c-6.955 4.854-9.75 13.788-6.817 21.75C.256 26.518-.325 28.31.187 30.048c.57 1.935 2.378 3.286 4.394 3.286.438 0 .875-.062 1.298-.188.276-.082.538-.19.79-.317.054.098.118.19.207.268 3.482 2.987 7.812 4.5 12.157 4.5 3.72 0 7.448-1.107 10.666-3.353 6.975-4.867 9.77-13.84 6.793-21.816-.033-.093-.09-.162-.14-.233zm-3.8-5.86c.24-.07.485-.106.732-.106 1.135 0 2.152.764 2.476 1.855.194.662.12 1.36-.208 1.966-.33.607-.876 1.048-1.538 1.244-1.343.395-2.816-.418-3.21-1.746-.194-.663-.12-1.36.21-1.967.33-.607.876-1.048 1.538-1.243zM5.312 31.227c-1.34.4-2.816-.417-3.208-1.746-.403-1.364.38-2.805 1.747-3.208.24-.068.487-.105.733-.105 1.136 0 2.154.763 2.476 1.854.194.663.12 1.36-.21 1.967-.33.604-.875 1.046-1.538 1.24zm23.242 1.374c-6.23 4.348-14.605 3.927-20.375-1.02 0 0-.002 0-.002-.003.157-.2.306-.406.43-.635.585-1.074.717-2.312.37-3.486-.57-1.937-2.378-3.287-4.394-3.287-.438 0-.875.06-1.3.187h-.002c-2.428-7.025.075-14.824 6.19-19.093C15.617.974 23.85 1.337 29.61 6.1c-.125.17-.252.336-.354.523-.585 1.075-.717 2.313-.37 3.487.57 1.937 2.378 3.287 4.396 3.287.438 0 .875-.062 1.3-.188.02-.007.038-.02.06-.025 2.615 7.107.12 15.082-6.088 19.416z"/></svg>