<svg xmlns="http://www.w3.org/2000/svg" width="500" height="105" viewBox="0 0 499.99996 105"><g><path d="M209.947 23.227c-8.938 0-19.102 4.143-25.313 12.438l.004-.017-.004.004.004-11.122h-21.316v77.627h21.312v-44.17c0-7.95 6.164-16.4 17.577-16.4 8.82 0 17.948 6.133 17.948 16.4v44.17h21.317v-48.12c0-17.855-12.774-30.81-31.528-30.81"/><path d="M392.97 24.533L373.7 77.41l-19.27-52.877h-24.35l31.94 77.603h23.358l31.94-77.603H392.97z"/><path d="M99.688 47.918c3.63-4.874 9.412-7.736 16.396-7.736 7.68 0 13.51 4.387 16.522 10.862l-37.242 15.45c-1.017-7.928 1.013-14.13 4.324-18.576M140.64 78.29c-8.97 6.64-14.097 8.223-22.278 8.223-7.362 0-13.127-2.286-17.19-6.294l54.495-22.608c-1.19-8.425-4.387-15.95-9.307-21.674-7.16-8.316-17.758-12.715-30.662-12.715-23.44 0-41.113 17.29-41.113 40.13 0 23.43 17.716 40.124 43.462 40.124 14.425 0 29.174-6.837 36.074-14.825L140.64 78.29z"/><path d="M72.554 82.583h-48.45V1.313H2.5v100.843h70.056V82.583z"/><path d="M455.592 41.49c-11.904 0-20.548 9.02-20.548 21.854 0 12.253 9.156 21.854 20.834 21.854 11.908 0 20.548-9.27 20.548-21.854 0-12.253-9.152-21.855-20.834-21.855m0 61.974c-23.313 0-41.58-17.367-41.58-40.12 0-22.498 18.393-40.12 41.866-40.12 23.312 0 41.574 17.366 41.574 40.12 0 22.493-18.388 40.12-41.86 40.12"/><path d="M291.48 41.49c-11.904 0-20.544 9.02-20.544 21.854 0 12.253 9.152 21.854 20.834 21.854 11.904 0 20.544-9.27 20.544-21.854 0-12.253-9.152-21.855-20.834-21.855m0 61.974c-23.313 0-41.575-17.367-41.575-40.12 0-22.498 18.388-40.12 41.865-40.12 23.308 0 41.575 17.366 41.575 40.12 0 22.493-18.393 40.12-41.865 40.12"/></g></svg>